<mxfile host="app.diagrams.net" modified="2022-11-29T15:53:08.273Z" agent="5.0 (Windows NT 10.0; Win64; x64) AppleWebKit/537.36 (KHTML, like Gecko) Chrome/107.0.0.0 Safari/537.36" version="20.6.0" etag="QfijSBm3vkkA60BluCmy" type="github">
  <diagram id="hv6_N-CqdAvJDbrWeCX3" name="Page-1">
    <mxGraphModel dx="782" dy="460" grid="1" gridSize="10" guides="1" tooltips="1" connect="1" arrows="1" fold="1" page="1" pageScale="1" pageWidth="850" pageHeight="1100" math="0" shadow="0">
      <root>
        <mxCell id="0" />
        <mxCell id="1" parent="0" />
        <mxCell id="BH36DMjO5CokkU7V8y5c-1" value="" style="rounded=0;whiteSpace=wrap;html=1;" vertex="1" parent="1">
          <mxGeometry x="100" y="170" width="260" height="130" as="geometry" />
        </mxCell>
        <mxCell id="BH36DMjO5CokkU7V8y5c-4" value="" style="group" vertex="1" connectable="0" parent="1">
          <mxGeometry x="110" y="210" width="110" height="80" as="geometry" />
        </mxCell>
        <mxCell id="BH36DMjO5CokkU7V8y5c-2" value="" style="ellipse;whiteSpace=wrap;html=1;" vertex="1" parent="BH36DMjO5CokkU7V8y5c-4">
          <mxGeometry width="110" height="80" as="geometry" />
        </mxCell>
        <mxCell id="BH36DMjO5CokkU7V8y5c-3" value="&lt;b&gt;&lt;font style=&quot;font-size: 15px;&quot;&gt;Contracts&lt;/font&gt;&lt;/b&gt;" style="text;html=1;strokeColor=none;fillColor=none;align=center;verticalAlign=middle;whiteSpace=wrap;rounded=0;" vertex="1" parent="BH36DMjO5CokkU7V8y5c-4">
          <mxGeometry x="25" y="22.5" width="70" height="35" as="geometry" />
        </mxCell>
        <mxCell id="BH36DMjO5CokkU7V8y5c-5" value="" style="group" vertex="1" connectable="0" parent="1">
          <mxGeometry x="240" y="210" width="110" height="80" as="geometry" />
        </mxCell>
        <mxCell id="BH36DMjO5CokkU7V8y5c-6" value="" style="ellipse;whiteSpace=wrap;html=1;" vertex="1" parent="BH36DMjO5CokkU7V8y5c-5">
          <mxGeometry width="110" height="80" as="geometry" />
        </mxCell>
        <mxCell id="BH36DMjO5CokkU7V8y5c-7" value="&lt;span style=&quot;font-size: 15px;&quot;&gt;&lt;b&gt;API&lt;/b&gt;&lt;/span&gt;" style="text;html=1;strokeColor=none;fillColor=none;align=center;verticalAlign=middle;whiteSpace=wrap;rounded=0;" vertex="1" parent="BH36DMjO5CokkU7V8y5c-5">
          <mxGeometry x="25" y="22.5" width="70" height="35" as="geometry" />
        </mxCell>
        <mxCell id="BH36DMjO5CokkU7V8y5c-8" value="" style="rounded=0;whiteSpace=wrap;html=1;fontSize=15;" vertex="1" parent="1">
          <mxGeometry x="460" y="170" width="250" height="130" as="geometry" />
        </mxCell>
        <mxCell id="BH36DMjO5CokkU7V8y5c-12" value="" style="group" vertex="1" connectable="0" parent="1">
          <mxGeometry x="520" y="210" width="110" height="80" as="geometry" />
        </mxCell>
        <mxCell id="BH36DMjO5CokkU7V8y5c-13" value="" style="ellipse;whiteSpace=wrap;html=1;" vertex="1" parent="BH36DMjO5CokkU7V8y5c-12">
          <mxGeometry width="110" height="80" as="geometry" />
        </mxCell>
        <mxCell id="BH36DMjO5CokkU7V8y5c-14" value="&lt;span style=&quot;font-size: 15px;&quot;&gt;&lt;b&gt;Infrastrucure&lt;/b&gt;&lt;/span&gt;" style="text;html=1;strokeColor=none;fillColor=none;align=center;verticalAlign=middle;whiteSpace=wrap;rounded=0;" vertex="1" parent="BH36DMjO5CokkU7V8y5c-12">
          <mxGeometry x="25" y="22.5" width="70" height="35" as="geometry" />
        </mxCell>
        <mxCell id="BH36DMjO5CokkU7V8y5c-16" value="" style="rounded=0;whiteSpace=wrap;html=1;fontSize=15;" vertex="1" parent="1">
          <mxGeometry x="310" y="360" width="250" height="130" as="geometry" />
        </mxCell>
        <mxCell id="BH36DMjO5CokkU7V8y5c-17" value="" style="group" vertex="1" connectable="0" parent="1">
          <mxGeometry x="370" y="400" width="110" height="80" as="geometry" />
        </mxCell>
        <mxCell id="BH36DMjO5CokkU7V8y5c-18" value="" style="ellipse;whiteSpace=wrap;html=1;" vertex="1" parent="BH36DMjO5CokkU7V8y5c-17">
          <mxGeometry width="110" height="80" as="geometry" />
        </mxCell>
        <mxCell id="BH36DMjO5CokkU7V8y5c-19" value="&lt;span style=&quot;font-size: 15px;&quot;&gt;&lt;b&gt;Application&lt;/b&gt;&lt;/span&gt;" style="text;html=1;strokeColor=none;fillColor=none;align=center;verticalAlign=middle;whiteSpace=wrap;rounded=0;" vertex="1" parent="BH36DMjO5CokkU7V8y5c-17">
          <mxGeometry x="25" y="22.5" width="70" height="35" as="geometry" />
        </mxCell>
        <mxCell id="BH36DMjO5CokkU7V8y5c-23" value="" style="rounded=0;whiteSpace=wrap;html=1;fontSize=15;" vertex="1" parent="1">
          <mxGeometry x="310" y="530" width="250" height="130" as="geometry" />
        </mxCell>
        <mxCell id="BH36DMjO5CokkU7V8y5c-24" value="" style="group" vertex="1" connectable="0" parent="1">
          <mxGeometry x="370" y="570" width="110" height="80" as="geometry" />
        </mxCell>
        <mxCell id="BH36DMjO5CokkU7V8y5c-25" value="" style="ellipse;whiteSpace=wrap;html=1;" vertex="1" parent="BH36DMjO5CokkU7V8y5c-24">
          <mxGeometry width="110" height="80" as="geometry" />
        </mxCell>
        <mxCell id="BH36DMjO5CokkU7V8y5c-26" value="&lt;span style=&quot;font-size: 15px;&quot;&gt;&lt;b&gt;Domain&lt;/b&gt;&lt;/span&gt;" style="text;html=1;strokeColor=none;fillColor=none;align=center;verticalAlign=middle;whiteSpace=wrap;rounded=0;" vertex="1" parent="BH36DMjO5CokkU7V8y5c-24">
          <mxGeometry x="25" y="22.5" width="70" height="35" as="geometry" />
        </mxCell>
        <mxCell id="BH36DMjO5CokkU7V8y5c-27" value="" style="endArrow=classic;html=1;rounded=0;fontSize=15;exitX=0.615;exitY=1.036;exitDx=0;exitDy=0;exitPerimeter=0;entryX=0.283;entryY=-0.005;entryDx=0;entryDy=0;entryPerimeter=0;" edge="1" parent="1" source="BH36DMjO5CokkU7V8y5c-1" target="BH36DMjO5CokkU7V8y5c-16">
          <mxGeometry width="50" height="50" relative="1" as="geometry">
            <mxPoint x="380" y="410" as="sourcePoint" />
            <mxPoint x="430" y="360" as="targetPoint" />
          </mxGeometry>
        </mxCell>
        <mxCell id="BH36DMjO5CokkU7V8y5c-28" value="" style="endArrow=classic;html=1;rounded=0;fontSize=15;exitX=0.075;exitY=1.036;exitDx=0;exitDy=0;exitPerimeter=0;entryX=0.5;entryY=0;entryDx=0;entryDy=0;" edge="1" parent="1" source="BH36DMjO5CokkU7V8y5c-8" target="BH36DMjO5CokkU7V8y5c-16">
          <mxGeometry width="50" height="50" relative="1" as="geometry">
            <mxPoint x="500" y="370" as="sourcePoint" />
            <mxPoint x="550" y="320" as="targetPoint" />
          </mxGeometry>
        </mxCell>
        <mxCell id="BH36DMjO5CokkU7V8y5c-29" value="" style="endArrow=classic;html=1;rounded=0;fontSize=15;exitX=0.448;exitY=1.021;exitDx=0;exitDy=0;exitPerimeter=0;entryX=0.44;entryY=0;entryDx=0;entryDy=0;entryPerimeter=0;" edge="1" parent="1" source="BH36DMjO5CokkU7V8y5c-16" target="BH36DMjO5CokkU7V8y5c-23">
          <mxGeometry width="50" height="50" relative="1" as="geometry">
            <mxPoint x="400" y="540" as="sourcePoint" />
            <mxPoint x="450" y="490" as="targetPoint" />
          </mxGeometry>
        </mxCell>
        <mxCell id="BH36DMjO5CokkU7V8y5c-30" value="&lt;b style=&quot;&quot;&gt;&lt;font color=&quot;#ff0000&quot;&gt;Presentation layer&lt;/font&gt;&lt;/b&gt;" style="text;html=1;strokeColor=none;fillColor=none;align=center;verticalAlign=middle;whiteSpace=wrap;rounded=0;fontSize=15;" vertex="1" parent="1">
          <mxGeometry x="155" y="170" width="150" height="40" as="geometry" />
        </mxCell>
        <mxCell id="BH36DMjO5CokkU7V8y5c-31" value="&lt;b style=&quot;&quot;&gt;&lt;font color=&quot;#ff0000&quot;&gt;Domain layer&lt;/font&gt;&lt;/b&gt;" style="text;html=1;strokeColor=none;fillColor=none;align=center;verticalAlign=middle;whiteSpace=wrap;rounded=0;fontSize=15;" vertex="1" parent="1">
          <mxGeometry x="360" y="530" width="150" height="40" as="geometry" />
        </mxCell>
        <mxCell id="BH36DMjO5CokkU7V8y5c-32" value="&lt;b style=&quot;&quot;&gt;&lt;font color=&quot;#ff0000&quot;&gt;Application layer&lt;/font&gt;&lt;/b&gt;" style="text;html=1;strokeColor=none;fillColor=none;align=center;verticalAlign=middle;whiteSpace=wrap;rounded=0;fontSize=15;" vertex="1" parent="1">
          <mxGeometry x="360" y="360" width="150" height="40" as="geometry" />
        </mxCell>
        <mxCell id="BH36DMjO5CokkU7V8y5c-33" value="&lt;b style=&quot;&quot;&gt;&lt;font color=&quot;#ff0000&quot;&gt;Infrastrucure layer&lt;/font&gt;&lt;/b&gt;" style="text;html=1;strokeColor=none;fillColor=none;align=center;verticalAlign=middle;whiteSpace=wrap;rounded=0;fontSize=15;" vertex="1" parent="1">
          <mxGeometry x="500" y="170" width="150" height="40" as="geometry" />
        </mxCell>
      </root>
    </mxGraphModel>
  </diagram>
</mxfile>
